<svg width="1489" height="262" viewBox="0 0 1489 262" fill="none" xmlns="http://www.w3.org/2000/svg">
<g clip-path="url(#clip0_421_6126)">
<path d="M230.912 45.881C220.531 45.881 210.761 47.6424 201.676 51.7015C192.592 55.6839 184.654 60.9682 177.936 67.7843C174.273 71.4604 171.066 75.4429 168.166 79.8082C165.341 75.4429 162.059 71.3838 158.395 67.7077C151.601 60.8917 143.663 55.6839 134.654 51.7015C125.571 47.7189 115.8 45.881 105.418 45.881H0V70.9243H105.495C112.441 70.9243 118.93 71.9965 125.036 74.6004C131.143 77.2808 136.487 80.7272 140.99 85.3223C145.571 89.9174 148.394 95.1252 150.99 101.252C153.662 107.379 154.196 113.888 154.196 120.858V219.04H179.158V120.781C179.158 113.812 181.218 107.302 183.891 101.175C186.486 95.0486 190.455 89.7642 195.035 85.1691C199.539 80.574 205.035 77.2808 211.142 74.6004C217.249 71.9199 223.967 70.9243 230.912 70.9243H332.744V45.881H230.912Z" fill="#4583F7"/>
<path d="M85.42 40.2838C106.794 20.8312 135.038 9.49655 166.029 9.49655C196.945 9.49655 225.189 20.8312 246.639 40.2838H260.838C237.098 15.2405 203.663 0 166.717 0C129.694 0 96.336 15.2405 72.5195 40.2838H85.42Z" fill="#4583F7"/>
<path d="M275.035 77.5808C282.822 93.7403 287.173 111.814 287.173 130.885C287.173 198.049 232.899 252.578 166.029 252.578C99.0837 252.578 44.8859 198.049 44.8859 130.885C44.8859 111.814 49.237 93.7403 57.0996 77.5808H47.3287C40.1532 94.2764 36.1074 111.967 36.1074 130.885C36.1074 203.257 94.58 261.998 166.716 261.998C238.853 261.998 297.325 203.257 297.325 130.808C297.325 111.891 293.356 94.1998 286.104 77.5043H275.035V77.5808Z" fill="#4583F7"/>
<path d="M666.408 86.7502H588.906C585.223 86.7502 581.539 86.0395 578.281 84.6179C574.88 83.1965 572.047 81.2063 569.638 78.7899C567.088 76.3733 565.245 73.5304 563.828 70.1188C562.412 66.8494 561.703 63.2957 561.703 59.5998C561.703 55.9039 562.412 52.3503 563.828 49.0809C565.245 45.8115 567.229 42.9685 569.638 40.4098C572.188 37.9932 575.021 36.0032 578.281 34.5817C581.681 33.1603 585.081 32.4495 588.906 32.4495H666.408V40.1255H588.906C586.215 40.1255 583.664 40.6941 581.255 41.6891C578.989 42.6842 576.864 44.1056 575.021 45.8114C573.18 47.5172 571.904 49.6495 570.771 51.9238C569.779 54.1982 569.213 56.7569 569.213 59.4576C569.213 62.1585 569.638 64.5751 570.771 66.9916C571.763 69.2659 573.18 71.3981 575.021 73.1039C576.864 74.8096 578.848 76.2312 581.255 77.2262C583.523 78.2213 586.215 78.7899 588.906 78.7899H666.408V86.7502Z" fill="#313944"/>
<path d="M909.68 49.2264C908.263 45.957 906.279 43.1141 903.87 40.5554C901.32 38.1389 898.487 36.2909 895.227 34.7272C891.828 33.3058 888.427 32.595 884.602 32.595H816.168H807.242V40.271V79.0776V85.332V86.8956H884.743C888.427 86.8956 891.969 86.185 895.37 84.7634C898.77 83.3419 901.604 81.4941 904.013 78.9354C906.421 76.5189 908.404 73.6759 909.821 70.2643C911.239 66.9949 911.947 63.4412 911.947 59.7454C911.805 56.0496 911.096 52.4957 909.68 49.2264ZM902.596 67.2793C901.604 69.6958 900.187 71.6858 898.344 73.3916C896.503 75.0973 894.519 76.5188 892.11 77.514C889.703 78.509 887.152 79.0776 884.459 79.0776H816.026V40.4132H884.459C887.152 40.4132 889.703 40.9818 892.11 41.9769C894.519 42.9719 896.503 44.3933 898.344 46.0991C900.187 47.8049 901.462 49.9371 902.596 52.2115C903.588 54.4859 904.154 57.0446 904.154 59.7454C904.154 62.4462 903.588 64.8627 902.596 67.2793Z" fill="#313944"/>
<path d="M1034.5 40.4071V32.7313H938.725H929.799V40.4071V55.9014V63.5773V79.0715V85.1839V86.7476H1034.5V79.0715H938.725V63.5773H1026.12V55.9014H938.725V40.4071H1034.5Z" fill="#313944"/>
<path d="M1173.35 86.7476H1111.3C1108.32 86.7476 1105.49 86.1789 1102.93 85.0417C1100.38 83.9046 1098.12 82.4831 1096.13 80.493C1094.15 78.5029 1092.59 76.3707 1091.6 73.812C1090.47 71.2533 1089.9 68.5526 1089.9 65.5674V53.9113C1089.9 50.9262 1090.47 48.2253 1091.6 45.6667C1092.73 43.108 1094.29 40.8337 1096.13 38.8436C1097.98 36.8536 1100.38 35.432 1102.93 34.2949C1105.49 33.1577 1108.32 32.7313 1111.3 32.7313H1173.35C1176.33 32.7313 1179.16 33.2999 1181.71 34.2949C1184.26 35.432 1186.53 36.8536 1188.51 38.8436C1190.5 40.8337 1192.05 43.108 1193.05 45.6667C1194.18 48.2253 1194.75 50.9262 1194.75 53.9113V65.5674C1194.75 68.5526 1194.18 71.2533 1193.05 73.812C1191.91 76.3707 1190.35 78.6451 1188.51 80.493C1186.53 82.4831 1184.26 83.9046 1181.71 85.0417C1179.16 86.1789 1176.33 86.7476 1173.35 86.7476ZM1111.3 40.2651C1109.45 40.2651 1107.61 40.6915 1106.05 41.4023C1104.35 42.113 1102.93 43.108 1101.8 44.3874C1100.53 45.6666 1099.54 46.946 1098.83 48.6517C1098.12 50.2154 1097.69 52.0634 1097.69 53.9113V65.5674C1097.69 67.4154 1098.12 69.1211 1098.83 70.8269C1099.54 72.3906 1100.53 73.9542 1101.8 75.0914C1103.08 76.3707 1104.49 77.3657 1106.05 77.9343C1107.61 78.6451 1109.45 79.0715 1111.3 79.0715H1173.35C1175.19 79.0715 1177.04 78.6451 1178.59 77.9343C1180.29 77.2237 1181.71 76.3707 1182.99 75.0914C1184.26 73.812 1185.11 72.3906 1185.82 70.8269C1186.53 69.2633 1186.95 67.4154 1186.95 65.5674V53.9113C1186.95 52.0634 1186.67 50.3575 1185.82 48.6517C1185.11 47.0881 1184.12 45.5246 1182.99 44.3874C1181.71 43.108 1180.29 42.2551 1178.59 41.4023C1176.89 40.6915 1175.19 40.2651 1173.35 40.2651H1111.3Z" fill="#313944"/>
<path d="M767.853 86.7476H705.654C702.679 86.7476 699.845 86.1789 697.294 85.0417C694.744 83.9046 692.477 82.4831 690.494 80.493C688.51 78.5029 686.951 76.3707 685.96 73.812C684.826 71.2533 684.26 68.5526 684.26 65.5674V53.9113C684.26 50.9262 684.826 48.2253 685.96 45.6667C687.093 43.108 688.651 40.8337 690.494 38.8436C692.477 36.8536 694.744 35.432 697.294 34.2949C699.845 33.1577 702.679 32.7313 705.654 32.7313H767.853C770.829 32.7313 773.662 33.2999 776.212 34.2949C778.763 35.432 781.029 36.8536 783.013 38.8436C784.997 40.8337 786.555 43.108 787.547 45.6667C788.68 48.2253 789.247 50.9262 789.247 53.9113V65.5674C789.247 68.5526 788.68 71.2533 787.547 73.812C786.414 76.3707 784.855 78.6451 783.013 80.493C781.172 82.341 778.763 83.9046 776.212 85.0417C773.521 86.1789 770.829 86.7476 767.853 86.7476ZM705.654 40.2651C703.812 40.2651 701.97 40.6915 700.411 41.4023C698.711 42.113 697.437 43.108 696.02 44.3874C694.744 45.6666 693.895 46.946 693.044 48.6517C692.336 50.2154 692.052 52.0634 692.052 53.9113V65.5674C692.052 67.4154 692.336 69.1211 693.044 70.8269C693.752 72.3906 694.744 73.9542 696.02 75.0914C697.294 76.3707 698.711 77.3657 700.411 77.9343C702.112 78.6451 703.812 79.0715 705.654 79.0715H767.853C769.695 79.0715 771.396 78.6451 773.095 77.9343C774.795 77.2237 776.212 76.3707 777.488 75.0914C778.763 73.812 779.755 72.3906 780.463 70.8269C781.172 69.2633 781.454 67.4154 781.454 65.5674V53.9113C781.454 52.0634 781.029 50.3575 780.463 48.6517C779.755 47.0881 778.763 45.5246 777.488 44.3874C776.212 43.108 774.795 42.2551 773.095 41.4023C771.396 40.6915 769.695 40.2651 767.853 40.2651H705.654Z" fill="#313944"/>
<path d="M1317.45 40.4071V32.7313H1221.66H1212.74V40.4071V81.3458V86.7476V86.8897H1221.81V75.1147C1221.81 74.9725 1221.81 74.665 1221.81 74.5228C1221.81 71.5092 1221.81 65.5 1221.81 63.7195C1224.14 63.7195 1225.94 63.7195 1229.53 63.7195C1232.53 63.7195 1235.98 63.7195 1238.39 63.7195H1308.8V56.0435H1238.39C1234.84 56.0435 1230.73 56.0435 1227.14 56.0435C1224.14 56.0435 1224.14 56.0435 1221.66 56.0435V40.4071H1317.45Z" fill="#313944"/>
<path d="M1439 128.882C1433.89 128.882 1429.21 129.737 1424.67 131.728C1420.28 133.721 1416.44 136.282 1413.04 139.555C1411.2 141.262 1409.64 143.254 1408.36 145.388C1406.94 143.254 1405.39 141.262 1403.69 139.555C1400.42 136.282 1396.59 133.721 1392.05 131.728C1387.51 129.737 1382.83 128.882 1377.87 128.882H1326.82V140.978H1377.87C1381.27 140.978 1384.39 141.546 1387.37 142.827C1390.35 144.107 1392.91 145.815 1395.17 148.092C1397.45 150.369 1398.86 152.93 1400.14 155.918C1401.41 158.905 1401.84 162.036 1401.84 165.452V213.546H1413.89V165.452C1413.89 162.036 1414.89 158.905 1416.16 155.918C1417.44 152.93 1419.28 150.369 1421.55 148.092C1423.68 145.815 1426.37 144.25 1429.49 142.969C1432.47 141.689 1435.73 141.119 1439.13 141.119H1488.92V129.025H1439V128.882Z" fill="#313944"/>
<path d="M502.729 128.882C497.622 128.882 492.942 129.737 488.404 131.728C484.008 133.721 480.178 136.282 476.774 139.555C474.93 141.262 473.371 143.254 472.094 145.388C470.675 143.254 469.116 141.262 467.413 139.555C464.152 136.282 460.18 133.721 455.784 131.728C451.388 129.737 446.565 128.882 441.46 128.882H390.402V140.978H441.46C444.864 140.978 447.983 141.546 450.963 142.827C453.941 144.107 456.493 145.815 458.762 148.092C461.032 150.369 462.451 152.93 463.726 155.918C465.003 158.905 465.429 162.036 465.429 165.452V213.546H477.483V165.452C477.483 162.036 478.476 158.905 479.753 155.918C481.029 152.93 483.015 150.369 485.142 148.092C487.27 145.815 489.964 144.25 493.085 142.969C496.063 141.689 499.325 141.119 502.729 141.119H552.509V129.025H502.729V128.882Z" fill="#313944"/>
<path fill-rule="evenodd" clip-rule="evenodd" d="M1104.71 128.737H942.321V129.023H942.037V213.686H954.093V213.685H1104.71V201.59H954.093V177.259H1104.71V165.163H954.093V140.832H1104.71V128.737Z" fill="#313944"/>
<path d="M763.688 213.685V128.737H775.742V201.59H913.814V213.685H763.688Z" fill="#313944"/>
<path d="M671.217 141.972L671.075 141.687C667.246 137.561 662.707 134.43 657.601 132.011C652.496 129.734 647.107 128.596 641.433 128.596C635.761 128.596 630.372 129.734 625.265 132.011C620.16 134.288 615.622 137.561 611.792 141.687L550.949 213.543H566.833L587.398 189.354H695.611L717.878 213.401L732.06 213.543L671.217 141.972ZM597.609 177.402L621.01 149.94C623.705 147.094 626.826 144.817 630.229 143.253C633.775 141.687 637.605 140.833 641.576 140.833C645.547 140.833 649.234 141.687 652.78 143.253C656.326 144.817 659.445 147.094 662.14 149.94L685.4 177.402H597.609Z" fill="#313944"/>
<path fill-rule="evenodd" clip-rule="evenodd" d="M1133.11 128.596H1145.08V128.688L1145.14 128.596L1286.43 200.473V128.596H1298.41V213.927H1286.43V213.924L1145.08 142.021V213.927H1133.11V128.596Z" fill="#313944"/>
</g>
<defs>
<clipPath id="clip0_421_6126">
<rect width="1489" height="262" fill="white"/>
</clipPath>
</defs>
</svg>